<svg xmlns="http://www.w3.org/2000/svg">
<symbol id="briefcase" viewBox="0 0 24 24"><g fill="none" stroke="currentColor" stroke-width="1.5" stroke-linecap="round" stroke-linejoin="round"><rect x="3" y="7" width="18" height="13" rx="1.5"/><path d="M9 7V5.5A1.5 1.5 0 0 1 10.5 4h3A1.5 1.5 0 0 1 15 5.5V7"/><path d="M3 12.5h18"/><path d="M11 12.5v1.5h2v-1.5"/></g></symbol>
<symbol id="shield" viewBox="0 0 24 24"><g fill="none" stroke="currentColor" stroke-width="1.5" stroke-linecap="round" stroke-linejoin="round"><path d="M12 3 4.5 6v5.5c0 4.6 3.1 8.3 7.5 9.5 4.4-1.2 7.5-4.9 7.5-9.5V6L12 3Z"/><path d="m9 12 2.2 2.2L15.5 10"/></g></symbol>
<symbol id="cart" viewBox="0 0 24 24"><g fill="none" stroke="currentColor" stroke-width="1.5" stroke-linecap="round" stroke-linejoin="round"><path d="M3 4h2.2l2.1 10.2a1.5 1.5 0 0 0 1.5 1.2h8.4a1.5 1.5 0 0 0 1.5-1.1L20.5 8H6.1"/><circle cx="9.5" cy="19.5" r="1.2"/><circle cx="17" cy="19.5" r="1.2"/></g></symbol>
<symbol id="scale" viewBox="0 0 24 24"><g fill="none" stroke="currentColor" stroke-width="1.5" stroke-linecap="round" stroke-linejoin="round"><path d="M12 4v16M8 20h8M5 7h14"/><circle cx="12" cy="4" r="0.6"/><path d="m5 7-2.5 6a2.5 2.5 0 0 0 5 0L5 7ZM19 7l-2.5 6a2.5 2.5 0 0 0 5 0L19 7Z"/></g></symbol>
<symbol id="building" viewBox="0 0 24 24"><g fill="none" stroke="currentColor" stroke-width="1.5" stroke-linecap="round" stroke-linejoin="round"><path d="M4 21V5.5A1.5 1.5 0 0 1 5.5 4h8A1.5 1.5 0 0 1 15 5.5V21"/><path d="M15 10h3.5A1.5 1.5 0 0 1 20 11.5V21M2.5 21h19"/><path d="M8 8h3M8 12h3M8 16h3"/></g></symbol>
<symbol id="user" viewBox="0 0 24 24"><g fill="none" stroke="currentColor" stroke-width="1.5" stroke-linecap="round" stroke-linejoin="round"><circle cx="12" cy="8" r="4"/><path d="M4.5 20.5c1.2-3.6 4-5.5 7.5-5.5s6.3 1.9 7.5 5.5"/></g></symbol>
<symbol id="users" viewBox="0 0 24 24"><g fill="none" stroke="currentColor" stroke-width="1.5" stroke-linecap="round" stroke-linejoin="round"><circle cx="9" cy="8.5" r="3.5"/><path d="M2.5 20c1-3.2 3.4-5 6.5-5s5.5 1.8 6.5 5"/><path d="M15.5 5.2a3.5 3.5 0 0 1 0 6.6M18 15.4c1.7.7 2.9 2.2 3.5 4.6"/></g></symbol>
<symbol id="chat" viewBox="0 0 24 24"><g fill="none" stroke="currentColor" stroke-width="1.5" stroke-linecap="round" stroke-linejoin="round"><path d="M20 12a7.5 7.5 0 0 1-11 6.6L4 20l1.4-4.6A7.5 7.5 0 1 1 20 12Z"/><path d="M8.5 11h7M8.5 14h4.5"/></g></symbol>
<symbol id="globe" viewBox="0 0 24 24"><g fill="none" stroke="currentColor" stroke-width="1.5" stroke-linecap="round" stroke-linejoin="round"><circle cx="12" cy="12" r="9"/><path d="M3 12h18M12 3c2.5 2.6 3.8 5.6 3.8 9s-1.3 6.4-3.8 9c-2.5-2.6-3.8-5.6-3.8-9S9.5 5.6 12 3Z"/></g></symbol>
<symbol id="lock" viewBox="0 0 24 24"><g fill="none" stroke="currentColor" stroke-width="1.5" stroke-linecap="round" stroke-linejoin="round"><rect x="5" y="10.5" width="14" height="10" rx="1.5"/><path d="M8 10.5V7.5a4 4 0 0 1 8 0v3"/><path d="M12 14.5v2.5"/></g></symbol>
<symbol id="clock" viewBox="0 0 24 24"><g fill="none" stroke="currentColor" stroke-width="1.5" stroke-linecap="round" stroke-linejoin="round"><circle cx="12" cy="12" r="9"/><path d="M12 7v5l3.5 2"/></g></symbol>
<symbol id="phone" viewBox="0 0 24 24"><g fill="none" stroke="currentColor" stroke-width="1.5" stroke-linecap="round" stroke-linejoin="round"><path d="M5 4h3.2l1.6 4-2 1.3a11 11 0 0 0 4.9 4.9l1.3-2 4 1.6V17a2 2 0 0 1-2.2 2A15.5 15.5 0 0 1 3 6.2 2 2 0 0 1 5 4Z"/></g></symbol>
<symbol id="mail" viewBox="0 0 24 24"><g fill="none" stroke="currentColor" stroke-width="1.5" stroke-linecap="round" stroke-linejoin="round"><rect x="3" y="5" width="18" height="14" rx="1.5"/><path d="m3.5 6 8.5 7 8.5-7"/></g></symbol>
<symbol id="pin" viewBox="0 0 24 24"><g fill="none" stroke="currentColor" stroke-width="1.5" stroke-linecap="round" stroke-linejoin="round"><path d="M12 21s-6.5-5.6-6.5-11a6.5 6.5 0 0 1 13 0c0 5.4-6.5 11-6.5 11Z"/><circle cx="12" cy="10" r="2.3"/></g></symbol>
<symbol id="video" viewBox="0 0 24 24"><g fill="none" stroke="currentColor" stroke-width="1.5" stroke-linecap="round" stroke-linejoin="round"><rect x="3" y="6.5" width="12.5" height="11" rx="1.5"/><path d="m15.5 10.5 5.5-3v9l-5.5-3"/></g></symbol>
<symbol id="doc" viewBox="0 0 24 24"><g fill="none" stroke="currentColor" stroke-width="1.5" stroke-linecap="round" stroke-linejoin="round"><path d="M14 3H7a1.5 1.5 0 0 0-1.5 1.5v15A1.5 1.5 0 0 0 7 21h10a1.5 1.5 0 0 0 1.5-1.5V7.5L14 3Z"/><path d="M14 3v4.5h4.5M9 12h6M9 15.5h6"/></g></symbol>
<symbol id="search" viewBox="0 0 24 24"><g fill="none" stroke="currentColor" stroke-width="1.5" stroke-linecap="round" stroke-linejoin="round"><circle cx="11" cy="11" r="6.5"/><path d="m20 20-4.4-4.4"/></g></symbol>
<symbol id="compass" viewBox="0 0 24 24"><g fill="none" stroke="currentColor" stroke-width="1.5" stroke-linecap="round" stroke-linejoin="round"><circle cx="12" cy="12" r="9"/><path d="m15.5 8.5-2 5-5 2 2-5 5-2Z"/></g></symbol>
<symbol id="handshake" viewBox="0 0 24 24"><g fill="none" stroke="currentColor" stroke-width="1.5" stroke-linecap="round" stroke-linejoin="round"><path d="m2.5 11 3-4.5 3 1.2L12 6l3.5 1.7 3-1.2 3 4.5"/><path d="M5.5 6.5 3 13.5l5.5 5 2-1.5M18.5 6.5l2.5 7-5.5 5-1.5-1"/><path d="m12 6-3.5 3.3a1.4 1.4 0 0 0 2 2l2-1.8 4.5 4.5"/><path d="m10.5 17 1.5 1.2a1.2 1.2 0 0 0 1.6-1.6M13.5 15.5l1.4 1.2a1.2 1.2 0 0 0 1.6-1.6"/></g></symbol>
<symbol id="target" viewBox="0 0 24 24"><g fill="none" stroke="currentColor" stroke-width="1.5" stroke-linecap="round" stroke-linejoin="round"><circle cx="12" cy="12" r="9"/><circle cx="12" cy="12" r="5"/><circle cx="12" cy="12" r="1"/></g></symbol>
<symbol id="book" viewBox="0 0 24 24"><g fill="none" stroke="currentColor" stroke-width="1.5" stroke-linecap="round" stroke-linejoin="round"><path d="M12 6.5C10.3 5 8 4.5 4 4.5v14c4 0 6.3.5 8 2 1.7-1.5 4-2 8-2v-14c-4 0-6.3.5-8 2Z"/><path d="M12 6.5v14"/></g></symbol>
<symbol id="spark" viewBox="0 0 24 24"><g fill="none" stroke="currentColor" stroke-width="1.5" stroke-linecap="round" stroke-linejoin="round"><path d="M12 3v4M12 17v4M3 12h4M17 12h4M5.6 5.6l2.8 2.8M15.6 15.6l2.8 2.8M18.4 5.6l-2.8 2.8M8.4 15.6l-2.8 2.8"/></g></symbol>
<symbol id="calendar" viewBox="0 0 24 24"><g fill="none" stroke="currentColor" stroke-width="1.5" stroke-linecap="round" stroke-linejoin="round"><rect x="3.5" y="5" width="17" height="15.5" rx="1.5"/><path d="M3.5 9.5h17M8 3v4M16 3v4"/></g></symbol>
<symbol id="arrow" viewBox="0 0 24 24"><g fill="none" stroke="currentColor" stroke-width="1.5" stroke-linecap="round" stroke-linejoin="round"><path d="M4 12h15M13.5 6.5 19 12l-5.5 5.5"/></g></symbol>
<symbol id="arrow-left" viewBox="0 0 24 24"><g fill="none" stroke="currentColor" stroke-width="1.5" stroke-linecap="round" stroke-linejoin="round"><path d="M20 12H5M10.5 6.5 5 12l5.5 5.5"/></g></symbol>
<symbol id="check" viewBox="0 0 24 24"><g fill="none" stroke="currentColor" stroke-width="1.5" stroke-linecap="round" stroke-linejoin="round"><path d="m5 12.5 4.5 4.5L19 7.5"/></g></symbol>
<symbol id="plus" viewBox="0 0 24 24"><g fill="none" stroke="currentColor" stroke-width="1.5" stroke-linecap="round" stroke-linejoin="round"><path d="M12 5v14M5 12h14"/></g></symbol>
<symbol id="menu" viewBox="0 0 24 24"><g fill="none" stroke="currentColor" stroke-width="1.5" stroke-linecap="round" stroke-linejoin="round"><path d="M4 7h16M4 12h16M4 17h10"/></g></symbol>
<symbol id="close" viewBox="0 0 24 24"><g fill="none" stroke="currentColor" stroke-width="1.5" stroke-linecap="round" stroke-linejoin="round"><path d="m6 6 12 12M18 6 6 18"/></g></symbol>
<symbol id="chevron" viewBox="0 0 24 24"><g fill="none" stroke="currentColor" stroke-width="1.5" stroke-linecap="round" stroke-linejoin="round"><path d="m6.5 9.5 5.5 5.5 5.5-5.5"/></g></symbol>
<symbol id="instagram" viewBox="0 0 24 24"><g fill="none" stroke="currentColor" stroke-width="1.5" stroke-linecap="round" stroke-linejoin="round"><rect x="3.5" y="3.5" width="17" height="17" rx="4.5"/><circle cx="12" cy="12" r="4"/><circle cx="17.2" cy="6.8" r="0.5"/></g></symbol>
<symbol id="linkedin" viewBox="0 0 24 24"><g fill="none" stroke="currentColor" stroke-width="1.5" stroke-linecap="round" stroke-linejoin="round"><rect x="3.5" y="3.5" width="17" height="17" rx="2"/><path d="M8 10.5V16M8 7.6v.1M11.5 16v-5.5M11.5 13c0-1.7 1-2.6 2.3-2.6s2.2.9 2.2 2.6V16"/></g></symbol>
<symbol id="facebook" viewBox="0 0 24 24"><g fill="none" stroke="currentColor" stroke-width="1.5" stroke-linecap="round" stroke-linejoin="round"><path d="M14 8.5h2.5V5H14a3.5 3.5 0 0 0-3.5 3.5V11H8v3.5h2.5V21H14v-6.5h2.5L17 11h-3V9a.5.5 0 0 1 .5-.5"/></g></symbol>
<symbol id="whatsapp" viewBox="0 0 24 24"><path fill="currentColor" d="M12.04 2.5a9.42 9.42 0 0 0-8.1 14.23L2.6 21.5l4.9-1.29a9.43 9.43 0 1 0 4.54-17.71Zm0 17.24a7.8 7.8 0 0 1-3.98-1.09l-.29-.17-2.9.76.78-2.83-.19-.29a7.82 7.82 0 1 1 6.58 3.62Zm4.29-5.86c-.23-.12-1.39-.69-1.6-.76-.22-.08-.37-.12-.53.11-.16.24-.61.77-.75.93-.14.16-.28.18-.51.06a6.42 6.42 0 0 1-3.2-2.8c-.24-.41.24-.38.69-1.28.08-.16.04-.29-.02-.41-.06-.12-.53-1.27-.72-1.74-.19-.46-.39-.39-.53-.4h-.45a.87.87 0 0 0-.63.29 2.65 2.65 0 0 0-.83 1.97 4.6 4.6 0 0 0 .97 2.45 10.55 10.55 0 0 0 4.04 3.57c1.5.65 2.09.7 2.84.59.46-.07 1.39-.57 1.59-1.12.2-.55.2-1.02.14-1.12-.06-.1-.21-.16-.45-.27Z"/></symbol>
</svg>
